<?xml version="1.0" encoding="UTF-8" standalone="no"?>
<!-- Generator: Adobe Illustrator 15.0.0, SVG Export Plug-In . SVG Version: 6.00 Build 0)  -->

<svg
   xmlns:dc="http://purl.org/dc/elements/1.1/"
   xmlns:cc="http://creativecommons.org/ns#"
   xmlns:rdf="http://www.w3.org/1999/02/22-rdf-syntax-ns#"
   xmlns:svg="http://www.w3.org/2000/svg"
   xmlns="http://www.w3.org/2000/svg"
   xmlns:sodipodi="http://sodipodi.sourceforge.net/DTD/sodipodi-0.dtd"
   xmlns:inkscape="http://www.inkscape.org/namespaces/inkscape"
   version="1.1"
   id="Layer_1"
   x="0px"
   y="0px"
   width="200"
   height="200"
   viewBox="0 0 200 199.99999"
   enable-background="new 0 0 841.89 595.28"
   xml:space="preserve"
   inkscape:version="0.48.4 r9939"
   sodipodi:docname="QQ_black.svg"><metadata
     id="metadata19"><rdf:RDF><cc:Work
         rdf:about=""><dc:format>image/svg+xml</dc:format><dc:type
           rdf:resource="http://purl.org/dc/dcmitype/StillImage" /></cc:Work></rdf:RDF></metadata><defs
     id="defs17" /><sodipodi:namedview
     pagecolor="#ffffff"
     bordercolor="#666666"
     borderopacity="1"
     objecttolerance="10"
     gridtolerance="10"
     guidetolerance="10"
     inkscape:pageopacity="0"
     inkscape:pageshadow="2"
     inkscape:window-width="1280"
     inkscape:window-height="774"
     id="namedview15"
     showgrid="false"
     inkscape:zoom="1.1213358"
     inkscape:cx="425.98975"
     inkscape:cy="197.55039"
     inkscape:window-x="0"
     inkscape:window-y="0"
     inkscape:window-maximized="1"
     inkscape:current-layer="Layer_1" /><g
     id="g3"
     transform="translate(-93.638321,-156.27936)"><path
       d="m 147.219,255.688 c 0,-26.946 14.001,-47.688 48.216,-47.688 34.212,0 48.213,20.742 48.213,47.688 0,9.324 -1.722,17.871 -5.33,25.105 h 31.053 c 1.986,-7.815 2.953,-16.244 2.953,-25.105 0,-42.973 -22.331,-76.046 -76.889,-76.046 -54.563,0 -76.892,33.073 -76.892,76.046 0,42.973 22.329,76.048 76.892,76.048 9.817,0 18.575,-1.084 26.364,-3.092 V 297.73 c -6.936,3.617 -15.662,5.648 -26.364,5.648 -34.215,0.001 -48.216,-20.739 -48.216,-47.69 z"
       id="path5"
       inkscape:connector-curvature="0"
       style="fill:#828282" /><path
       d="m 254.616,288.511 c 0,0 -25.1,0 -25.1,24.965 0,24.966 0,32.003 0,32.003 h 56.969 v -56.968 h -31.869 z"
       id="path7"
       inkscape:connector-curvature="0"
       style="fill:#828282" /></g><g
     id="g9"
     transform="translate(-93.638321,-156.27936)"><path
       d="m 195.435,162.87 c -66.594,0 -93.849,40.366 -93.849,92.818 0,52.45 27.255,92.818 93.849,92.818 9.604,0 18.361,-0.863 26.364,-2.459 v -36.478 c -7.385,2.784 -16.124,4.323 -26.364,4.323 -41.761,0 -58.85,-25.313 -58.85,-58.205 0,-32.892 17.089,-58.205 58.85,-58.205 41.758,0 58.847,25.313 58.847,58.205 0,9.083 -1.357,17.551 -4.123,25.105 h 36.769 c 1.574,-7.948 2.354,-16.352 2.354,-25.105 -0.002,-52.451 -27.257,-92.817 -93.847,-92.817 z"
       id="path11"
       inkscape:connector-curvature="0" /><path
       d="m 239.041,318.826 c 0,20.793 0,26.652 0,26.652 h 47.444 v -47.444 h -26.542 c 0,0.001 -20.902,0.001 -20.902,20.792 z"
       id="path13"
       inkscape:connector-curvature="0" /></g></svg>