<?xml version="1.0" encoding="utf-8"?>
<!-- Generator: Adobe Illustrator 15.0.0, SVG Export Plug-In . SVG Version: 6.00 Build 0)  -->
<!DOCTYPE svg PUBLIC "-//W3C//DTD SVG 1.1//EN" "http://www.w3.org/Graphics/SVG/1.1/DTD/svg11.dtd">
<svg version="1.1" id="Layer_1" xmlns="http://www.w3.org/2000/svg" xmlns:xlink="http://www.w3.org/1999/xlink" x="0px" y="0px"
	 width="283.46px" height="283.46px" viewBox="0 0 283.46 283.46" enable-background="new 0 0 283.46 283.46" xml:space="preserve">
<g id="update">
	<g>
		<g>
			<path fill="#838383" d="M66.896,137.963c0-37.729,19.604-66.772,67.512-66.772c47.904,0,67.507,29.043,67.507,66.772
				c0,13.056-2.412,25.023-7.463,35.152h43.479c2.78-10.941,4.135-22.744,4.135-35.152c0-60.17-31.269-106.479-107.659-106.479
				c-76.4,0-107.665,46.31-107.665,106.479c0,60.171,31.265,106.482,107.665,106.482c13.745,0,26.007-1.518,36.913-4.33V196.83
				c-9.71,5.065-21.928,7.909-36.913,7.909C86.501,204.742,66.896,175.701,66.896,137.963z"/>
			<path fill="#838383" d="M217.272,183.921c0,0-35.144,0-35.144,34.955c0,34.959,0,44.812,0,44.812h79.767v-79.768H217.272z"/>
		</g>
		<g>
			<path d="M134.408,8C41.162,8,3,64.52,3,137.963c0,73.44,38.162,129.964,131.408,129.964c13.447,0,25.708-1.208,36.913-3.443
				v-51.076c-10.339,3.898-22.575,6.055-36.913,6.055c-58.475,0-82.403-35.443-82.403-81.5c0-46.055,23.928-81.499,82.403-81.499
				c58.47,0,82.396,35.444,82.396,81.499c0,12.717-1.9,24.575-5.771,35.153h51.484c2.202-11.13,3.295-22.896,3.295-35.153
				C265.81,64.52,227.647,8,134.408,8z"/>
			<path d="M195.464,226.369c0,29.113,0,37.317,0,37.317h66.432v-66.431h-37.163C224.732,197.257,195.464,197.257,195.464,226.369z"
				/>
		</g>
	</g>
	<path d="M192.632,75.632c0,8.186-6.635,14.822-14.821,14.822h-86.81c-8.186,0-14.821-6.636-14.821-14.822V18.821
		C76.18,10.636,82.815,4,91.001,4h86.81c8.188,0,14.821,6.636,14.821,14.821V75.632L192.632,75.632z"/>
	<g>
		<path d="M146.283,171.785c-6.532,8.742-17.222,8.742-23.754,0l-19.218-25.723c-6.532-8.743-17.222-23.049-23.754-31.792
			L60.34,88.548c-6.532-8.742-2.947-15.896,7.966-15.896h46.258c10.914,0,28.771,0,39.686,0h46.258
			c10.914,0,14.498,7.153,7.968,15.896l-19.22,25.722c-6.53,8.743-17.221,23.049-23.752,31.792L146.283,171.785z"/>
	</g>
	<g>
		<path fill="#8DC63F" d="M146.283,141.926c-6.533,8.742-17.221,8.742-23.753,0l-7.494-10.03
			c-6.532-8.743-17.221-23.049-23.753-31.792L83.79,90.075c-6.532-8.743-2.947-15.896,7.966-15.896h22.809
			c10.913,0,28.771,0,39.685,0h22.809c10.914,0,14.498,7.153,7.967,15.896l-7.494,10.029c-6.531,8.743-17.221,23.049-23.753,31.792
			L146.283,141.926z"/>
	</g>
	<path fill="#8DC63F" d="M110.629,90.454c-7.284,0-13.189-5.904-13.189-13.19V36.012c0-7.284,5.905-13.189,13.189-13.189h47.555
		c7.285,0,13.188,5.905,13.188,13.189v41.251c0,7.286-5.904,13.19-13.188,13.19L110.629,90.454L110.629,90.454z"/>
</g>
</svg>
