<?xml version="1.0" encoding="utf-8"?>
<!-- Generator: Adobe Illustrator 15.0.0, SVG Export Plug-In . SVG Version: 6.00 Build 0)  -->
<!DOCTYPE svg PUBLIC "-//W3C//DTD SVG 1.1//EN" "http://www.w3.org/Graphics/SVG/1.1/DTD/svg11.dtd">
<svg version="1.1" id="Layer_1" xmlns="http://www.w3.org/2000/svg" xmlns:xlink="http://www.w3.org/1999/xlink" x="0px" y="0px"
	 width="283.46px" height="283.46px" viewBox="0 0 283.46 283.46" enable-background="new 0 0 283.46 283.46" xml:space="preserve">
<g id="incoming">
	<g>
		<path fill="#838383" d="M66.896,137.963c0-37.729,19.604-66.772,67.512-66.772c47.904,0,67.507,29.043,67.507,66.772
			c0,13.056-2.412,25.023-7.463,35.152h43.479c2.78-10.941,4.135-22.744,4.135-35.152c0-60.17-31.269-106.479-107.659-106.479
			c-76.4,0-107.665,46.31-107.665,106.479c0,60.171,31.265,106.482,107.665,106.482c13.745,0,26.007-1.518,36.913-4.33V196.83
			c-9.71,5.065-21.928,7.909-36.913,7.909C86.501,204.742,66.896,175.701,66.896,137.963z"/>
		<path fill="#838383" d="M217.272,183.921c0,0-35.144,0-35.144,34.955c0,34.959,0,44.812,0,44.812h79.767v-79.768H217.272z"/>
	</g>
	<g>
		<path d="M134.408,8C41.162,8,3,64.52,3,137.963c0,73.44,38.162,129.964,131.408,129.964c13.447,0,25.708-1.208,36.913-3.443
			v-51.076c-10.339,3.898-22.575,6.055-36.913,6.055c-58.475,0-82.403-35.443-82.403-81.5c0-46.055,23.928-81.499,82.403-81.499
			c58.47,0,82.396,35.444,82.396,81.499c0,12.717-1.9,24.575-5.771,35.153h51.484c2.202-11.13,3.295-22.896,3.295-35.153
			C265.81,64.52,227.647,8,134.408,8z"/>
		<path d="M195.464,226.369c0,29.113,0,37.317,0,37.317h66.432v-66.431h-37.163C224.732,197.257,195.464,197.257,195.464,226.369z"
			/>
	</g>
	<path d="M262,19.65H103.662c-10.572,0-19.143,8.57-19.143,19.141v80.667c0,10.571,8.571,19.142,19.143,19.142h1.852
		c3.615,12.844,9.79,34.812,12.243,43.744c0.594,2.079,2.699,2.134,3.292-0.015c2.568-8.75,9.03-30.832,12.807-43.729H262
		c10.568,0,17.739-8.57,17.739-19.142V38.791C279.739,28.22,272.568,19.65,262,19.65z"/>
	<path fill="#5FCCF5" d="M249.957,36.205H114.303c-7.499,0-13.578,6.078-13.578,13.577v58.616c0,5.753,3.58,10.669,8.631,12.648
		c0.096,0.037,0.193,0.07,0.289,0.108c0.2,0.078,0.379,0.82,0.379,0.82c2.565,9.11,7.325,34.16,8.699,40.707
		c0.314,1.5,1.993,1.531,2.335-0.012c1.403-6.328,6.392-31.547,9.069-40.695h119.83c7.496,0,13.578-6.079,13.578-13.577V49.781
		C263.533,42.283,257.453,36.205,249.957,36.205z"/>
</g>
</svg>
